<svg width="25" height="25" viewBox="0 0 25 25" fill="none" xmlns="http://www.w3.org/2000/svg">
<path d="M19.4741 2.09717H5.52539C3.60669 2.09717 2.05127 3.65258 2.05127 5.57129V19.52C2.05127 21.4387 3.60669 22.9941 5.52539 22.9941H19.4741C21.3928 22.9941 22.9482 21.4387 22.9482 19.52V5.57129C22.9482 3.65258 21.3928 2.09717 19.4741 2.09717Z" fill="black"/>
<path d="M19.0132 10.8359V8.04932C15.3706 7.89551 15.2534 4.58545 15.2534 4.27441V4.25098H12.438V15.104C12.4377 15.573 12.2895 16.0299 12.0145 16.4098C11.7395 16.7897 11.3517 17.0733 10.9063 17.22C10.4608 17.3668 9.98045 17.3694 9.53348 17.2274C9.0865 17.0854 8.69568 16.8061 8.41663 16.4291C8.13757 16.0522 7.98448 15.5969 7.97915 15.1279C7.97382 14.6589 8.1165 14.2002 8.38692 13.8171C8.65733 13.4339 9.04169 13.1457 9.48532 12.9936C9.92895 12.8415 10.4093 12.8331 10.8579 12.9697V10.0957C10.6422 10.068 10.425 10.0542 10.2075 10.0542C9.20877 10.0542 8.23244 10.3504 7.402 10.9052C6.57156 11.4601 5.92432 12.2488 5.54211 13.1715C5.1599 14.0943 5.0599 15.1096 5.25475 16.0892C5.4496 17.0687 5.93054 17.9685 6.63677 18.6748C7.343 19.381 8.24279 19.8619 9.22235 20.0568C10.2019 20.2516 11.2173 20.1516 12.14 19.7694C13.0627 19.3872 13.8514 18.74 14.4063 17.9095C14.9612 17.0791 15.2573 16.1028 15.2573 15.104C15.2573 15.0332 15.2573 14.9629 15.2524 14.8931V9.54883C16.5488 10.7349 19.0132 10.8359 19.0132 10.8359Z" fill="#00F6EF"/>
<path d="M19.8423 11.5234V8.73535C16.1992 8.58154 16.0825 5.27148 16.0825 4.96045V4.93701H13.2671V15.79C13.2669 16.259 13.1188 16.7161 12.8438 17.096C12.5689 17.476 12.1811 17.7596 11.7357 17.9064C11.2903 18.0533 10.8099 18.0559 10.3629 17.914C9.91585 17.7721 9.52498 17.4928 9.24587 17.1158C8.96676 16.7389 8.81363 16.2836 8.80825 15.8146C8.80288 15.3456 8.94554 14.8869 9.21595 14.5037C9.48635 14.1205 9.87072 13.8323 10.3144 13.6801C10.758 13.528 11.2383 13.5196 11.687 13.6562V10.7817C11.4708 10.7547 11.2531 10.7414 11.0352 10.7422C10.0364 10.7425 9.06012 11.0389 8.22983 11.5941C7.39955 12.1492 6.75253 12.9381 6.37061 13.861C5.98868 14.7839 5.889 15.7993 6.08417 16.7788C6.27934 17.7583 6.7606 18.6579 7.46708 19.364C8.17356 20.07 9.07354 20.5506 10.0532 20.7451C11.0328 20.9396 12.0482 20.8393 12.9708 20.4567C13.8934 20.0742 14.6819 19.4266 15.2364 18.5959C15.791 17.7653 16.0868 16.7888 16.0864 15.79C16.0864 15.7192 16.0864 15.6489 16.0815 15.5791V10.2349C17.3779 11.4209 19.8423 11.5234 19.8423 11.5234Z" fill="white"/>
<path d="M15.3232 4.93701C15.459 5.67627 15.8555 6.83203 17.0112 7.5083C16.1279 6.47949 16.0835 5.15186 16.0835 4.96045V4.93701H15.3232Z" fill="#FF004F"/>
<path d="M19.8423 11.5234V8.73535C19.5634 8.72513 19.2858 8.69247 19.0122 8.6377V10.8325C19.0122 10.8325 16.5479 10.7314 15.2524 9.54541V14.8882C15.2554 14.958 15.2573 15.0283 15.2573 15.0991C15.2572 16.0128 15.0092 16.9092 14.5398 17.6931C14.0705 18.4769 13.3972 19.1187 12.5919 19.5502C11.7865 19.9816 10.8792 20.1865 9.96664 20.143C9.05405 20.0995 8.17034 19.8093 7.40967 19.3032C8.10923 20.0257 9.00858 20.5228 9.99247 20.7309C10.9764 20.9389 12 20.8484 12.9321 20.471C13.8643 20.0936 14.6625 19.4464 15.2244 18.6124C15.7864 17.7785 16.0866 16.7957 16.0864 15.79C16.0864 15.7192 16.0864 15.6489 16.0815 15.5791V10.2349C17.3779 11.4209 19.8423 11.5234 19.8423 11.5234Z" fill="#FF004F"/>
<path d="M10.8578 12.9654C10.3202 12.8014 9.74058 12.8464 9.23472 13.0913C8.72887 13.3363 8.33411 13.7632 8.12937 14.2866C7.92463 14.81 7.92499 15.3914 8.13039 15.9146C8.33578 16.4377 8.73108 16.8641 9.23724 17.1084C8.96063 16.7306 8.80992 16.2753 8.80646 15.8071C8.803 15.3388 8.94696 14.8814 9.21794 14.4995C9.48893 14.1176 9.87321 13.8307 10.3163 13.6793C10.7595 13.528 11.239 13.5199 11.6869 13.6563V10.7818C11.4707 10.7547 11.253 10.7415 11.0351 10.7422C10.975 10.7422 10.9159 10.7422 10.8564 10.7456L10.8578 12.9654Z" fill="#FF004F"/>
</svg>
