<svg width="22" height="27" viewBox="0 0 22 27" fill="none" xmlns="http://www.w3.org/2000/svg">
<path fill-rule="evenodd" clip-rule="evenodd" d="M22 15.6182V23.404C22 25.2717 20.38 26.8 18.4008 26.8H3.59923C1.61849 26.8 0 25.2717 0 23.404V15.6182C0 13.7503 1.61849 12.2222 3.59923 12.2222H18.4008C20.38 12.2222 22 13.7503 22 15.6182Z" fill="#D42927"/>
<path fill-rule="evenodd" clip-rule="evenodd" d="M1.52979 14.8262V16.0207L3.05663 16.0248V24.249H4.58627V16.0479H6.42106V14.833L1.52979 14.8262Z" fill="#FFFFFE"/>
<path fill-rule="evenodd" clip-rule="evenodd" d="M6.12129 17.2695L6.12575 21.6094C6.12721 22.2753 6.10996 22.771 6.13158 22.9972C6.16859 23.3955 6.15434 23.8592 6.52394 24.1244C7.21283 24.6201 8.53209 24.05 8.86138 23.3408L8.85846 24.2461L10.0875 24.2476L10.0861 17.2695H8.55631V21.6493C8.55631 22.2826 8.59488 22.599 8.55487 22.7108C8.43025 23.05 7.87179 23.4112 7.65249 22.7479C7.61664 22.632 7.64812 22.2811 7.64812 21.6795L7.64262 17.2695L6.12129 17.2695Z" fill="#FFFFFE"/>
<path fill-rule="evenodd" clip-rule="evenodd" d="M11.0045 14.8344L10.9971 24.1889L12.2532 24.1701L12.3677 23.5872C13.9733 25.0611 14.9831 24.0513 14.9802 22.2855L14.9777 18.6386C14.9762 17.2508 13.9363 16.4189 12.5254 17.5416L12.5327 14.8315L11.0045 14.8344ZM12.5067 18.4568C12.5067 18.1546 12.8076 17.9067 13.1743 17.9067C13.5439 17.9067 13.8446 18.1546 13.8446 18.4568V22.5487C13.8446 22.8509 13.5439 23.0973 13.1743 23.0973C12.8076 23.0973 12.5067 22.8509 12.5067 22.5487V18.4568Z" fill="#FFFFFE"/>
<path fill-rule="evenodd" clip-rule="evenodd" d="M16.7387 17.2281C16.448 17.4371 16.2261 17.7165 16.097 18.0931C15.9669 18.4682 15.9023 18.9812 15.9023 19.6343V21.8071C15.9023 25.4205 20.291 24.9095 19.7682 21.8012L18.6208 21.8085C18.6194 21.8529 18.6179 21.9057 18.6179 21.9633V22.6035C18.6179 22.9456 18.3345 23.2235 17.9905 23.2235H17.7657C17.4222 23.2235 17.1384 22.9456 17.1384 22.6035V20.919H19.7651V19.9309C19.7651 19.2088 19.7464 18.4869 19.6878 18.0729C19.499 16.7669 17.6656 16.559 16.7387 17.2281ZM17.9421 18.1892C18.3172 18.1892 18.6253 18.4957 18.6253 18.8694L18.6095 19.7101H17.1601L17.167 18.8694C17.167 18.4957 17.4736 18.1892 17.849 18.1892H17.9421Z" fill="#FFFFFE"/>
<path fill-rule="evenodd" clip-rule="evenodd" d="M5.33062 5.17643L5.33365 10.7355H6.94217L6.94363 5.17394L8.8441 0.409803H7.08517L6.07388 3.94779L5.04978 0.399902H3.30811L5.33062 5.17643Z" fill="black"/>
<path fill-rule="evenodd" clip-rule="evenodd" d="M8.89018 4.27421C8.77585 4.66687 8.7168 5.20954 8.7168 5.90581V7.82646C8.7168 8.46078 8.74684 8.93775 8.8114 9.25569C8.87593 9.5725 8.98184 9.8446 9.13224 10.0679C9.28108 10.2915 9.49052 10.4605 9.76106 10.5705C10.0302 10.6839 10.3584 10.7367 10.7467 10.7367C11.0946 10.7367 11.4026 10.6739 11.6717 10.5419C11.9383 10.4132 12.1572 10.2112 12.3277 9.93918C12.5012 9.66562 12.6126 9.37335 12.6643 9.05801C12.716 8.74454 12.7431 8.24887 12.7431 7.57711V5.74232C12.7431 5.211 12.7145 4.81718 12.6584 4.55504C12.6012 4.29729 12.4968 4.04502 12.342 3.80006C12.1902 3.55518 11.9724 3.3575 11.6875 3.20573C11.4052 3.05389 11.0674 2.97656 10.6733 2.97656C10.2036 2.97656 9.81822 3.09566 9.51764 3.33328C9.21549 3.56983 9.00605 3.88331 8.89018 4.27421ZM10.0518 8.786V4.92611C10.0518 4.51649 10.3584 4.18097 10.7309 4.18097C11.1031 4.18097 11.4067 4.51649 11.4067 4.92611V8.786C11.4067 9.19696 11.1031 9.53215 10.7309 9.53215C10.3584 9.53215 10.0518 9.19696 10.0518 8.786Z" fill="black"/>
<path fill-rule="evenodd" clip-rule="evenodd" d="M13.7085 3.25733V8.14859C13.7085 8.77158 13.7198 9.18702 13.7385 9.39749C13.7572 9.6065 13.8057 9.80711 13.8845 10.0021C13.9633 10.1924 14.085 10.3486 14.2526 10.466C14.4158 10.5822 14.6267 10.6394 14.8785 10.6394C15.0993 10.6394 15.2939 10.5807 15.4645 10.4575C15.6335 10.3344 15.7765 10.1525 15.8927 9.90898L15.8641 10.5089H17.5699V3.25732H16.2278V8.90067C16.2278 9.20719 15.9756 9.45623 15.6676 9.45623C15.3614 9.45623 15.1091 9.20719 15.1091 8.90067V3.25732L13.7085 3.25733Z" fill="black"/>
</svg>
