<svg width="34" height="34" viewBox="0 0 34 34" fill="none" xmlns="http://www.w3.org/2000/svg">
<g clip-path="url(#clip0_546_3319)">
<path d="M12.0646 26.3225V27.4192H13.1614V26.3225C14.3711 26.3225 15.3549 25.3387 15.3549 24.1289C15.3549 22.9192 14.3711 21.9354 13.1614 21.9354H12.0646C11.4597 21.9354 10.9679 21.4435 10.9679 20.8386C10.9679 20.2337 11.4597 19.7419 12.0646 19.7419H13.1614C13.7663 19.7419 14.2582 20.2337 14.2582 20.8386H15.3549C15.3549 19.6289 14.3711 18.6451 13.1614 18.6451V17.5483H12.0646V18.6451C10.8549 18.6451 9.87109 19.6289 9.87109 20.8386C9.87109 22.0484 10.8549 23.0322 12.0646 23.0322H13.1614C13.7663 23.0322 14.2582 23.5241 14.2582 24.1289C14.2582 24.7338 13.7663 25.2257 13.1614 25.2257H12.0646C11.4597 25.2257 10.9679 24.7338 10.9679 24.1289V23.5805H9.87109V24.1289C9.87109 25.3387 10.8549 26.3225 12.0646 26.3225Z" fill="white"/>
<path d="M32.3549 12.6129H31.8065V1.09677H30.7097L24.0457 1.87823C23.7731 0.80232 22.8047 0 21.6454 0H2.48366C1.1143 0 0 1.1143 0 2.48366V31.5158C0 32.8857 1.1143 34 2.48366 34H21.6449C22.8036 34 23.772 33.1983 24.0446 32.1229L30.645 32.8994L31.8065 32.9032V21.3871H32.3549C33.2619 21.3871 34 20.649 34 19.742V14.2581C34 13.351 33.2619 12.6129 32.3549 12.6129ZM21.6454 32.9032H2.48366C1.71919 32.9032 1.09677 32.2808 1.09677 31.5163V2.48366C1.09677 1.71919 1.71919 1.09677 2.48366 1.09677H21.6449C22.2415 1.09677 22.7471 1.47787 22.9424 2.00766L21.3548 2.19353H3.2903C2.6854 2.19353 2.19353 2.6854 2.19353 3.2903V30.7096C2.19353 31.3145 2.6854 31.8064 3.2903 31.8064H21.3531L22.9423 31.9934C22.7471 32.5227 22.2415 32.9032 21.6454 32.9032ZM20.8387 30.7097H3.2903V18.6451H4.93545C5.51457 18.6451 6.02232 18.343 6.31517 17.8894L7.2847 18.604L7.12732 18.7811C6.06727 19.9733 5.48383 21.5088 5.48383 23.1046C5.48383 26.6933 8.40345 29.6129 11.9921 29.6129H13.2336C16.8223 29.6129 19.7419 26.6933 19.7419 23.1046C19.7419 21.8614 19.3811 20.6544 18.7219 19.6169C19.3196 19.3706 19.7419 18.7827 19.7419 18.0968C19.7419 17.674 19.5768 17.2917 19.3142 17C19.5774 16.7083 19.7419 16.326 19.7419 15.9032C19.7419 15.4804 19.5768 15.0982 19.3142 14.8065C19.5774 14.5147 19.7419 14.1325 19.7419 13.7097C19.7419 13.2869 19.5768 12.9047 19.3142 12.6129C19.5774 12.3212 19.7419 11.939 19.7419 11.5162C19.7419 10.6091 19.0038 9.87102 18.0968 9.87102H17.5484C17.5484 9.26613 17.0565 8.77426 16.4516 8.77426H16.4264L17.5358 5.83273L17.1952 5.58762C16.1072 4.8023 14.8229 4.3872 13.481 4.3872H12.79L12.0086 6.34L11.3067 4.93558H10.5082C9.23432 4.93558 8.10787 5.7472 7.70538 6.95639L7.63406 7.17134L8.62883 9.17077C8.47855 9.24481 8.33053 9.32543 8.18955 9.41973L6.33217 10.658C6.04204 10.1875 5.52712 9.87109 4.93545 9.87109H3.2903V3.2903H20.8387V30.7097ZM3.2903 10.9677H4.93545C5.23812 10.9677 5.48383 11.2134 5.48383 11.5161V17C5.48383 17.3027 5.23812 17.5484 4.93545 17.5484H3.2903V10.9677ZM8.82572 7.10268C9.12787 6.45502 9.77938 6.03221 10.5082 6.03221H10.6289L11.9998 8.77413H10.319C10.1051 8.77413 9.894 8.79604 9.68562 8.83117L8.82572 7.10268ZM15.2545 8.77419H12.2164L13.532 5.48389C14.4845 5.49319 15.4003 5.75536 16.207 6.2467L15.2545 8.77419ZM10.3185 9.87096H16.4516C16.4516 10.4759 15.9597 10.9677 15.3549 10.9677H12.3859L11.5441 11.8095C11.0259 12.3272 10.3377 12.6129 9.605 12.6129H8.22581V13.7096H9.49809L9.83536 15.7348L8.01636 17.7814L6.58066 16.723V11.8095L8.79776 10.3316C9.24966 10.03 9.77553 9.87096 10.3185 9.87096ZM17.2435 10.9677H18.0968C18.3995 10.9677 18.6452 11.2134 18.6452 11.5161C18.6452 11.8188 18.3995 12.0645 18.0968 12.0645H15.3549C16.1631 12.0645 16.8629 11.6203 17.2435 10.9677ZM18.6451 18.0968C18.6451 18.3994 18.3994 18.6451 18.0968 18.6451H16.4516C16.1489 18.6451 15.9032 18.3994 15.9032 18.0968C15.9032 17.7941 16.1489 17.5484 16.4516 17.5484H18.0968C18.3995 17.5484 18.6451 17.7941 18.6451 18.0968ZM7.94723 19.5094L10.6656 16.4516H13.8106C13.9905 16.9556 14.4061 17.3439 14.9271 17.4848C14.8508 17.6745 14.8064 17.8801 14.8064 18.0968C14.8064 19.0038 15.5445 19.7419 16.4516 19.7419H17.466C18.225 20.6972 18.6451 21.8801 18.6451 23.1046C18.6451 26.0884 16.2174 28.5161 13.2336 28.5161H11.992C9.00827 28.5161 6.58053 26.0884 6.58053 23.1046C6.58066 21.7781 7.06596 20.5015 7.94723 19.5094ZM18.6451 13.7097C18.6451 14.0124 18.3994 14.2581 18.0968 14.2581H15.3549C15.0522 14.2581 14.8065 14.0124 14.8065 13.7097C14.8065 13.407 15.0522 13.1613 15.3549 13.1613H18.0968C18.3995 13.1613 18.6451 13.407 18.6451 13.7097ZM18.6451 15.9032C18.6451 16.2059 18.3994 16.4516 18.0968 16.4516H16.4516H15.3549C15.0522 16.4516 14.8065 16.2059 14.8065 15.9032C14.8065 15.6006 15.0522 15.3549 15.3549 15.3549H18.0968C18.3995 15.3549 18.6451 15.6005 18.6451 15.9032ZM13.8106 12.0645C13.8835 12.2696 13.9943 12.4544 14.1374 12.6129C13.8742 12.9046 13.7097 13.2868 13.7097 13.7096C13.7097 14.1324 13.8748 14.5147 14.1374 14.8064C13.9943 14.9649 13.8836 15.1497 13.8106 15.3548H10.8839L10.5883 13.5786C11.237 13.4074 11.8326 13.0719 12.3196 12.5848L12.84 12.0644H13.8106V12.0645ZM30.7097 31.8026L21.9355 30.77V3.23L30.7097 2.19738V31.8026ZM32.9032 19.7419C32.9032 20.0446 32.6575 20.2903 32.3549 20.2903H31.8065V13.7096H32.3549C32.6575 13.7096 32.9032 13.9553 32.9032 14.258V19.7419Z" fill="white"/>
<path d="M28.5161 25.2256H29.6129V26.3224H28.5161V25.2256Z" fill="white"/>
<path d="M28.5161 27.4194H29.6129V28.5162H28.5161V27.4194Z" fill="white"/>
<path d="M28.5161 23.0322H29.6129V24.129H28.5161V23.0322Z" fill="white"/>
<path d="M28.5161 29.6128H29.6129V30.7096H28.5161V29.6128Z" fill="white"/>
</g>
<defs>
<clipPath id="clip0_546_3319">
<rect width="34" height="34" fill="white"/>
</clipPath>
</defs>
</svg>
