<svg width="24" height="24" viewBox="0 0 24 24" fill="none" xmlns="http://www.w3.org/2000/svg">
<g clip-path="url(#clip0_546_3863)">
<path d="M12 24C5.3736 24 0 18.6264 0 12C0 5.3736 5.3736 0 12 0C18.6264 0 24 5.3736 24 12C24 18.6264 18.6264 24 12 24Z" fill="#3B579D"/>
<path d="M15.1198 24.0001V14.7049H18.2398L18.7078 11.0833H15.1198V8.76966C15.1198 7.72086 15.4102 7.00566 16.915 7.00566H18.8326V3.76806C18.5014 3.72486 17.3614 3.62646 16.0366 3.62646C13.2718 3.62646 11.3782 5.31366 11.3782 8.41446V11.0857H8.25098V14.7073H11.3782V24.0001H15.1198Z" fill="white"/>
</g>
<defs>
<clipPath id="clip0_546_3863">
<rect width="24" height="24" fill="white"/>
</clipPath>
</defs>
</svg>
