<svg width="24" height="24" viewBox="0 0 24 24" fill="none" xmlns="http://www.w3.org/2000/svg">
<g clip-path="url(#clip0_546_3972)">
<path d="M21.4737 23.1563H2.52622C1.88609 23.1563 1.36719 22.6374 1.36719 21.9973V9.1106H22.6326V21.9973C22.6327 22.6374 22.1137 23.1563 21.4737 23.1563Z" fill="#1E88E5"/>
<path d="M21.1838 9.1106V21.9972C21.1838 22.6374 20.665 23.1563 20.0249 23.1563H21.4736C22.1137 23.1563 22.6325 22.6374 22.6325 21.9972V9.1106H21.1838Z" fill="#1976D2"/>
<path d="M20.5325 16.9572C20.5677 16.9572 20.5963 16.9857 20.5963 17.021V17.6902C20.5963 17.9407 20.573 18.1856 20.5284 18.4232C20.1832 20.2686 18.5574 21.6633 16.6086 21.6499C14.4219 21.6348 12.6719 19.868 12.6768 17.6813C12.6816 15.4985 14.4526 13.7305 16.6365 13.7305C17.7065 13.7305 18.6773 14.1549 19.39 14.8444C19.4158 14.8693 19.4164 14.9103 19.3911 14.9356L18.4443 15.8825C18.4199 15.9068 18.3805 15.9074 18.3555 15.8837C17.9082 15.4579 17.303 15.1964 16.6365 15.1964C15.2603 15.1964 14.1521 16.2968 14.1428 17.6729C14.1334 19.0581 15.2535 20.184 16.6365 20.184C17.7586 20.184 18.7077 19.4427 19.0206 18.4232H16.7002C16.665 18.4232 16.6365 18.3947 16.6365 18.3595V17.021C16.6365 16.9857 16.665 16.9572 16.7002 16.9572H20.5325Z" fill="#FAFAFA"/>
<path d="M12 0.84375V9.11053H6L6.64866 0.84375H12Z" fill="#3F51B5"/>
<path d="M6.64866 0.84375L6 9.11053H0L1.07053 1.83412C1.1542 1.26525 1.64222 0.84375 2.21714 0.84375H6.64866Z" fill="#7986CB"/>
<path d="M12 0.84375V9.11053H18L17.3513 0.84375H12Z" fill="#7986CB"/>
<path d="M17.3516 0.84375L18.0002 9.11053H24.0002L22.9297 1.83412C22.846 1.26525 22.358 0.84375 21.7831 0.84375H17.3516Z" fill="#3F51B5"/>
<path d="M22.9293 1.83412C22.8456 1.26525 22.3576 0.84375 21.7827 0.84375H20.334C20.9089 0.84375 21.3969 1.26525 21.4806 1.83412L22.5511 9.11053H23.9998L22.9293 1.83412Z" fill="#3949AB"/>
<path d="M3.00066 12.2154H2.99939C1.34288 12.2154 0 10.8725 0 9.21606V9.1106H6V9.21606C6 10.8725 4.65712 12.2154 3.00066 12.2154Z" fill="#5C6BC0"/>
<path d="M9.00061 12.2154H8.99934C7.34283 12.2154 6 10.8725 6 9.21606V9.1106H12V9.21606C12 10.8725 10.6571 12.2154 9.00061 12.2154Z" fill="#3949AB"/>
<path d="M15.0006 12.2154H14.9993C13.3428 12.2154 12 10.8725 12 9.21606V9.1106H18V9.21606C18 10.8725 16.6571 12.2154 15.0006 12.2154Z" fill="#5C6BC0"/>
<path d="M21.0006 12.2154H20.9993C19.3428 12.2154 18 10.8725 18 9.21606V9.1106H24V9.21606C24 10.8725 22.6571 12.2154 21.0006 12.2154Z" fill="#3949AB"/>
<path d="M22.5515 9.1106V9.21592C22.5515 10.623 21.5827 11.8032 20.2759 12.127C20.5077 12.1845 20.7499 12.2155 20.9994 12.2155H21.001C22.6575 12.2155 24.0002 10.8726 24.0002 9.21597V9.11064L22.5515 9.1106Z" fill="#303F9F"/>
</g>
<defs>
<clipPath id="clip0_546_3972">
<rect width="24" height="24" fill="white"/>
</clipPath>
</defs>
</svg>
