<svg width="35" height="35" viewBox="0 0 35 35" fill="none" xmlns="http://www.w3.org/2000/svg">
<path d="M17.3544 16.2762C18.4233 16.2762 19.4682 15.9592 20.357 15.3654C21.2457 14.7715 21.9384 13.9274 22.3474 12.9398C22.7564 11.9523 22.8633 10.8656 22.6547 9.81728C22.4461 8.76894 21.9313 7.806 21.1754 7.05025C20.4195 6.2945 19.4564 5.77988 18.4081 5.57148C17.3597 5.36308 16.273 5.47026 15.2856 5.87946C14.2981 6.28866 13.4541 6.9815 12.8604 7.87037C12.2667 8.75923 11.95 9.80419 11.9502 10.8731C11.9519 12.3057 12.5219 13.6792 13.535 14.6921C14.5482 15.7051 15.9218 16.2748 17.3544 16.2762ZM17.3544 7.65637C17.9906 7.65637 18.6125 7.84503 19.1415 8.19848C19.6705 8.55194 20.0828 9.05432 20.3263 9.6421C20.5697 10.2299 20.6334 10.8767 20.5093 11.5006C20.3852 12.1246 20.0788 12.6978 19.629 13.1477C19.1791 13.5975 18.6059 13.9039 17.982 14.028C17.358 14.1521 16.7112 14.0884 16.1234 13.8449C15.5357 13.6015 15.0333 13.1892 14.6798 12.6602C14.3264 12.1312 14.1377 11.5093 14.1377 10.8731C14.1389 10.0203 14.4781 9.2028 15.0811 8.5998C15.6841 7.9968 16.5016 7.65753 17.3544 7.65637Z" fill="white"/>
<path d="M7.14551 19.4522C7.96754 19.4522 8.77111 19.2084 9.4546 18.7517C10.1381 18.295 10.6708 17.6459 10.9854 16.8864C11.3 16.127 11.3823 15.2913 11.2219 14.4851C11.0615 13.6788 10.6657 12.9383 10.0844 12.357C9.50316 11.7757 8.76259 11.3799 7.95635 11.2195C7.15012 11.0591 6.31444 11.1414 5.55498 11.456C4.79552 11.7706 4.14641 12.3033 3.68971 12.9868C3.23302 13.6703 2.98926 14.4739 2.98926 15.2959C2.98926 16.3982 3.42715 17.4554 4.2066 18.2348C4.98604 19.0143 6.0432 19.4522 7.14551 19.4522ZM7.14551 13.3272C7.53489 13.3272 7.91553 13.4426 8.23929 13.6589C8.56305 13.8753 8.81539 14.1828 8.9644 14.5425C9.11341 14.9022 9.15239 15.2981 9.07643 15.68C9.00046 16.0619 8.81296 16.4127 8.53762 16.688C8.26229 16.9634 7.91149 17.1509 7.52959 17.2268C7.14769 17.3028 6.75184 17.2638 6.3921 17.1148C6.03236 16.9658 5.72488 16.7134 5.50855 16.3897C5.29222 16.0659 5.17676 15.6853 5.17676 15.2959C5.17676 14.7738 5.38418 14.273 5.75339 13.9038C6.1226 13.5346 6.62336 13.3272 7.14551 13.3272Z" fill="white"/>
<path d="M27.5625 19.4522C28.3845 19.4522 29.1881 19.2084 29.8716 18.7517C30.5551 18.295 31.0878 17.6459 31.4024 16.8864C31.717 16.127 31.7993 15.2913 31.6389 14.4851C31.4785 13.6788 31.0827 12.9383 30.5014 12.357C29.9202 11.7757 29.1796 11.3799 28.3733 11.2195C27.5671 11.0591 26.7314 11.1414 25.972 11.456C25.2125 11.7706 24.5634 12.3033 24.1067 12.9868C23.65 13.6703 23.4062 14.4739 23.4062 15.2959C23.4062 16.3982 23.8441 17.4554 24.6236 18.2348C25.403 19.0143 26.4602 19.4522 27.5625 19.4522ZM27.5625 13.3272C27.9519 13.3272 28.3325 13.4426 28.6563 13.6589C28.98 13.8753 29.2324 14.1828 29.3814 14.5425C29.5304 14.9022 29.5694 15.2981 29.4934 15.68C29.4175 16.0619 29.23 16.4127 28.9546 16.688C28.6793 16.9634 28.3285 17.1509 27.9466 17.2268C27.5647 17.3028 27.1688 17.2638 26.8091 17.1148C26.4494 16.9658 26.1419 16.7134 25.9255 16.3897C25.7092 16.0659 25.5938 15.6853 25.5938 15.2959C25.5938 14.7738 25.8012 14.273 26.1704 13.9038C26.5396 13.5346 27.0404 13.3272 27.5625 13.3272Z" fill="white"/>
<path d="M27.708 21.6466C26.7492 21.6529 25.8071 21.8984 24.9671 22.3608C24.1685 21.0965 23.0678 20.0509 21.7642 19.3183C20.4606 18.5856 18.9952 18.1889 17.5 18.1641C16.0049 18.1889 14.5394 18.5856 13.2359 19.3183C11.9323 20.0509 10.8316 21.0965 10.033 22.3608C9.19299 21.8984 8.25089 21.6529 7.29205 21.6466C5.57147 21.7305 3.95398 22.4918 2.7927 23.7641C1.63141 25.0365 1.02066 26.7166 1.09377 28.4377C1.09377 28.7277 1.20901 29.0059 1.41413 29.2111C1.61924 29.4162 1.89744 29.5314 2.18752 29.5314C2.4776 29.5314 2.7558 29.4162 2.96092 29.2111C3.16604 29.0059 3.28127 28.7277 3.28127 28.4377C3.20959 27.2969 3.59044 26.174 4.34124 25.3122C5.09204 24.4504 6.15228 23.9193 7.29205 23.8341C7.89648 23.8387 8.48988 23.9964 9.0169 24.2923C8.50143 25.5914 8.23752 26.9766 8.23924 28.3742C8.23924 28.6643 8.35448 28.9425 8.55959 29.1476C8.76471 29.3527 9.04291 29.468 9.33299 29.468C9.62307 29.468 9.90127 29.3527 10.1064 29.1476C10.3115 28.9425 10.4267 28.6643 10.4267 28.3742C10.4267 23.95 13.5986 20.3516 17.5 20.3516C21.4014 20.3516 24.5733 23.95 24.5733 28.3742C24.5733 28.6643 24.6885 28.9425 24.8937 29.1476C25.0988 29.3527 25.377 29.468 25.6671 29.468C25.9571 29.468 26.2353 29.3527 26.4405 29.1476C26.6456 28.9425 26.7608 28.6643 26.7608 28.3742C26.7625 26.9766 26.4986 25.5914 25.9831 24.2923C26.5102 23.9964 27.1036 23.8387 27.708 23.8341C28.8478 23.9193 29.908 24.4504 30.6588 25.3122C31.4096 26.174 31.7905 27.2969 31.7188 28.4377C31.7188 28.7277 31.834 29.0059 32.0391 29.2111C32.2442 29.4162 32.5224 29.5314 32.8125 29.5314C33.1026 29.5314 33.3808 29.4162 33.5859 29.2111C33.791 29.0059 33.9063 28.7277 33.9063 28.4377C33.9794 26.7166 33.3686 25.0365 32.2074 23.7641C31.0461 22.4918 29.4286 21.7305 27.708 21.6466Z" fill="white"/>
</svg>
