<svg width="38" height="38" viewBox="0 0 38 38" fill="none" xmlns="http://www.w3.org/2000/svg">
<path fill-rule="evenodd" clip-rule="evenodd" d="M10.7515 14.8791C9.92055 13.974 9.34048 12.8675 9.06872 11.6693H3.87192C3.44817 11.6722 3.04276 11.8426 2.74414 12.1432C2.44552 12.4439 2.27793 12.8504 2.27793 13.2742C2.27793 13.6979 2.44552 14.1045 2.74414 14.4052C3.04276 14.7058 3.44817 14.8762 3.87192 14.8791H10.7515ZM24.8948 13.9373C24.8746 14.0604 24.8124 14.1728 24.7186 14.2551C24.6249 14.3375 24.5055 14.3848 24.3807 14.3889C24.256 14.3931 24.1337 14.3539 24.0347 14.278C23.9357 14.2021 23.866 14.0941 23.8377 13.9726C23.701 13.392 23.633 12.7974 23.6348 12.2009C23.6353 12.0239 23.6417 11.8467 23.654 11.6693H22.8488C22.5771 12.8675 21.9971 13.974 21.1661 14.8791H27.5097C27.5484 14.8786 27.5854 14.863 27.6127 14.8356C27.6401 14.8082 27.6557 14.7712 27.6562 14.7325V11.8157C27.6557 11.777 27.6401 11.7401 27.6127 11.7127C27.5854 11.6853 27.5484 11.6697 27.5097 11.6692H26.02C25.4798 12.3314 25.0952 13.1065 24.8948 13.9372V13.9373ZM23.8066 10.59C23.8187 10.5332 23.8316 10.4763 23.8451 10.4193C24.2333 8.78537 25.0632 7.2896 26.2442 6.09556C27.1969 5.14786 28.3551 4.46134 29.6299 4.18703L29.2362 2.87706C29.2063 2.77684 29.2062 2.67008 29.236 2.56982C29.2657 2.46955 29.324 2.38011 29.4037 2.31238C29.4834 2.24465 29.5811 2.20157 29.6848 2.18838C29.7886 2.1752 29.8939 2.19248 29.988 2.23812L36.4789 4.91073C36.5546 4.94191 36.6222 4.98996 36.6766 5.05122C36.7309 5.11247 36.7706 5.18532 36.7926 5.26421C36.8145 5.34311 36.8182 5.42598 36.8033 5.5065C36.7884 5.58703 36.7553 5.6631 36.7066 5.72892C35.3122 7.59871 33.9323 9.48231 32.5457 11.3583C32.4848 11.4399 32.402 11.5027 32.307 11.5392C32.2119 11.5757 32.1084 11.5846 32.0085 11.5647C31.9086 11.5448 31.8164 11.497 31.7426 11.4269C31.6688 11.3567 31.6163 11.2671 31.5914 11.1683L31.1422 9.38137C29.7069 9.39228 28.3219 9.80346 27.2055 10.5782L27.1893 10.5895H27.5098C27.8349 10.5901 28.1464 10.7194 28.3762 10.9492C28.606 11.1791 28.7354 11.4906 28.7359 11.8156V14.7324C28.7359 14.7639 28.7114 14.8906 28.7421 14.8932C29.667 14.9771 30.5272 15.4032 31.1544 16.0881C31.7817 16.773 32.1307 17.6673 32.1332 18.5959V22.1548C32.5239 22.3162 32.858 22.5897 33.0936 22.9408C33.3291 23.2919 33.4555 23.7048 33.4568 24.1275V26.5674C33.4555 26.9902 33.3292 27.4031 33.0936 27.7542C32.8581 28.1052 32.5239 28.3787 32.1332 28.5401V32.0991C32.1306 33.0842 31.7382 34.0282 31.0417 34.7247C30.3452 35.4212 29.4012 35.8137 28.4161 35.8162H4.90452C3.9195 35.8137 2.97554 35.4213 2.27901 34.7248C1.58248 34.0283 1.19005 33.0843 1.1875 32.0993V13.2741C1.18921 12.5627 1.47257 11.8809 1.97563 11.3779C2.47869 10.8748 3.16049 10.5914 3.87192 10.5897H8.91137C8.90058 10.4305 8.89517 10.2699 8.89512 10.108C8.90118 8.23854 9.64809 6.44767 10.9722 5.12786C12.2963 3.80805 14.0896 3.06695 15.9591 3.06695C17.8286 3.06695 19.6219 3.80805 20.946 5.12786C22.2701 6.44767 23.017 8.23854 23.023 10.108C23.023 10.2699 23.0176 10.4305 23.0068 10.5897L23.8066 10.59ZM24.8952 10.6684C24.8216 10.9759 24.7695 11.2881 24.7393 11.6029C25.2259 10.8505 25.8561 10.2015 26.5938 9.69309C27.9975 8.71867 29.7585 8.24026 31.5541 8.31262C31.6761 8.31025 31.7953 8.34934 31.8922 8.42348C31.9891 8.49763 32.058 8.60246 32.0876 8.72083L32.3587 9.80108L35.4314 5.64364L30.5947 3.65169L30.8396 4.4675H30.839C30.8616 4.54341 30.8672 4.62338 30.8553 4.70169C30.8435 4.78001 30.8145 4.85475 30.7704 4.92058C30.7264 4.98641 30.6684 5.04172 30.6005 5.08256C30.5326 5.12339 30.4566 5.14876 30.3778 5.15684C29.1104 5.2868 27.9448 5.92174 27.003 6.85875C25.9645 7.91123 25.2353 9.22899 24.8952 10.668V10.6684ZM26.1636 23.6625C25.7736 23.6625 25.3957 23.7977 25.0942 24.0451C24.7927 24.2924 24.5864 24.6367 24.5103 25.0192C24.4342 25.4016 24.493 25.7987 24.6768 26.1426C24.8606 26.4865 25.158 26.7561 25.5183 26.9054C25.8786 27.0546 26.2795 27.0743 26.6527 26.9611C27.0259 26.848 27.3482 26.6089 27.5649 26.2846C27.7816 25.9604 27.8791 25.571 27.8409 25.1829C27.8027 24.7948 27.6311 24.432 27.3553 24.1562C27.199 23.9995 27.0132 23.8752 26.8087 23.7905C26.6042 23.7057 26.385 23.6623 26.1636 23.6625ZM26.5921 24.9195C26.4929 24.8203 26.3625 24.7586 26.2229 24.7448C26.0834 24.731 25.9434 24.7661 25.8268 24.8439C25.7102 24.9218 25.6242 25.0377 25.5834 25.1719C25.5427 25.3061 25.5498 25.4502 25.6034 25.5798C25.657 25.7093 25.7539 25.8163 25.8776 25.8824C26.0012 25.9485 26.144 25.9697 26.2815 25.9424C26.4191 25.915 26.5429 25.8409 26.6318 25.7325C26.7208 25.6241 26.7694 25.4882 26.7694 25.348C26.7695 25.2684 26.7539 25.1896 26.7235 25.1161C26.693 25.0425 26.6484 24.9757 26.5921 24.9195ZM31.3239 23.0747H24.8469C24.5679 23.0759 24.3007 23.1873 24.1035 23.3845C23.9062 23.5818 23.7949 23.8489 23.7937 24.1279V26.5678C23.7949 26.8467 23.9062 27.1139 24.1035 27.3111C24.3007 27.5084 24.5679 27.6197 24.8469 27.6209H31.3239C31.6029 27.6197 31.8701 27.5084 32.0673 27.3111C32.2645 27.1139 32.3758 26.8467 32.377 26.5678V24.1277C32.3758 23.8487 32.2645 23.5816 32.0673 23.3843C31.8701 23.1871 31.6029 23.0757 31.3239 23.0745V23.0747ZM24.8469 21.9951H31.0531V18.5961C31.0507 17.8973 30.7721 17.2279 30.278 16.7338C29.7839 16.2397 29.1144 15.961 28.4157 15.9586H3.87192C3.29306 15.9589 2.72981 15.771 2.26709 15.4232V32.0993C2.26951 32.798 2.54816 33.4675 3.04225 33.9616C3.53634 34.4556 4.20578 34.7343 4.90452 34.7367H28.416C29.1147 34.7342 29.784 34.4555 30.2781 33.9615C30.7721 33.4674 31.0507 32.798 31.0531 32.0993V28.7005H24.8469C24.2816 28.6993 23.7399 28.4742 23.3402 28.0745C22.9405 27.6748 22.7154 27.133 22.7141 26.5678V24.1277C22.7154 23.5624 22.9405 23.0207 23.3402 22.621C23.7399 22.2213 24.2816 21.9962 24.8469 21.9949V21.9951ZM19.5745 14.8793H12.3431C11.3433 14.1219 10.6065 13.0696 10.2368 11.871C9.86714 10.6724 9.88318 9.388 10.2827 8.19901C10.6822 7.01001 11.445 5.97649 12.4634 5.2443C13.4818 4.51211 14.7045 4.11822 15.9588 4.11822C17.2131 4.11822 18.4358 4.51211 19.4542 5.2443C20.4726 5.97649 21.2354 7.01001 21.6349 8.19901C22.0344 9.388 22.0505 10.6724 21.6808 11.871C21.3111 13.0696 20.5744 14.1219 19.5745 14.8793ZM15.419 6.12362V6.82662C15.013 6.94396 14.6561 7.19003 14.402 7.5278C14.1479 7.86556 14.0104 8.27672 14.0103 8.69938C14.0103 10.0502 14.9197 10.3619 15.8162 10.6685C16.3255 10.843 16.8277 11.0149 16.8277 11.5168C16.8288 11.6316 16.8071 11.7454 16.7639 11.8518C16.7207 11.9581 16.6568 12.0549 16.5761 12.1364C16.4953 12.218 16.3991 12.2827 16.2932 12.3269C16.1872 12.371 16.0736 12.3938 15.9588 12.3938C15.844 12.3938 15.7303 12.371 15.6244 12.3269C15.5184 12.2827 15.4223 12.218 15.3415 12.1364C15.2607 12.0549 15.1969 11.9581 15.1537 11.8518C15.1105 11.7454 15.0888 11.6316 15.0899 11.5168C15.0899 11.3736 15.033 11.2363 14.9318 11.1351C14.8305 11.0339 14.6932 10.977 14.5501 10.977C14.4069 10.977 14.2696 11.0339 14.1684 11.1351C14.0671 11.2363 14.0103 11.3736 14.0103 11.5168C14.0105 11.9394 14.148 12.3505 14.4021 12.6882C14.6562 13.0258 15.013 13.2719 15.419 13.3892V14.0922C15.419 14.2353 15.4759 14.3726 15.5771 14.4739C15.6784 14.5751 15.8157 14.632 15.9588 14.632C16.102 14.632 16.2393 14.5751 16.3405 14.4739C16.4417 14.3726 16.4986 14.2353 16.4986 14.0922V13.3892C16.9046 13.2718 17.2615 13.0258 17.5156 12.688C17.7696 12.3503 17.9071 11.9391 17.9073 11.5165C17.9073 10.2451 17.0408 9.94855 16.162 9.64774C15.6298 9.46561 15.0899 9.28073 15.0899 8.69908C15.0888 8.5843 15.1105 8.47044 15.1537 8.36409C15.1969 8.25774 15.2607 8.16099 15.3415 8.07945C15.4223 7.99791 15.5184 7.93318 15.6244 7.88901C15.7303 7.84484 15.844 7.8221 15.9588 7.8221C16.0736 7.8221 16.1872 7.84484 16.2932 7.88901C16.3991 7.93318 16.4953 7.99791 16.5761 8.07945C16.6568 8.16099 16.7207 8.25774 16.7639 8.36409C16.8071 8.47044 16.8288 8.5843 16.8277 8.69908C16.8277 8.84224 16.8846 8.97954 16.9858 9.08077C17.087 9.182 17.2243 9.23887 17.3675 9.23887C17.5106 9.23887 17.6479 9.182 17.7492 9.08077C17.8504 8.97954 17.9073 8.84224 17.9073 8.69908C17.9071 8.27652 17.7696 7.86545 17.5156 7.52776C17.2616 7.19007 16.9048 6.94403 16.4988 6.82669V6.12362C16.4988 5.98045 16.442 5.84315 16.3407 5.74192C16.2395 5.64069 16.1022 5.58382 15.959 5.58382C15.8159 5.58382 15.6786 5.64069 15.5773 5.74192C15.4761 5.84315 15.4192 5.98045 15.4192 6.12362H15.419Z" fill="white"/>
</svg>
