<svg width="37" height="37" viewBox="0 0 37 37" fill="none" xmlns="http://www.w3.org/2000/svg">
<g clip-path="url(#clip0_546_3337)">
<path d="M35.7668 23.4335H30.5368C29.5866 19.5293 27.3104 16.0761 24.097 13.6637C24.3151 13.4556 24.4787 13.1971 24.5735 12.911C24.6683 12.6249 24.6913 12.3198 24.6406 12.0227C24.5898 11.7255 24.4669 11.4454 24.2825 11.2069C24.0982 10.9685 23.8581 10.7789 23.5833 10.655L25.1866 4.99336C25.2918 4.6269 25.3105 4.24104 25.2412 3.86614C25.1719 3.49124 25.0166 3.13754 24.7874 2.83286C24.5582 2.52819 24.2615 2.28086 23.9205 2.11034C23.5795 1.93983 23.2036 1.85078 22.8223 1.85021H21.7068C21.3824 1.28662 20.9151 0.818495 20.3522 0.492988C19.7892 0.167481 19.1504 -0.00390625 18.5001 -0.00390625C17.8498 -0.00390625 17.211 0.167481 16.6481 0.492988C16.0851 0.818495 15.6179 1.28662 15.2934 1.85021H14.1773C13.7964 1.85098 13.421 1.94006 13.0804 2.11045C12.7398 2.28083 12.4433 2.52788 12.2143 2.83218C11.9853 3.13648 11.83 3.48974 11.7606 3.86419C11.6912 4.23865 11.7095 4.62411 11.8142 4.99028L13.4175 10.655C13.1426 10.779 12.9024 10.9686 12.718 11.2073C12.5336 11.4459 12.4107 11.7262 12.3601 12.0235C12.3095 12.3208 12.3327 12.626 12.4277 12.9123C12.5228 13.1985 12.6867 13.4569 12.9051 13.6649C9.69934 16.0845 7.4244 19.534 6.46277 23.4335H1.85011C1.4923 23.432 1.14178 23.5346 0.841365 23.729C0.54095 23.9234 0.303649 24.201 0.15845 24.528C0.0132518 24.8551 -0.0335572 25.2173 0.0237419 25.5705C0.0810409 25.9237 0.239967 26.2525 0.481105 26.5169C0.171771 26.8531 8.2542e-05 27.2933 8.2542e-05 27.7502C8.2542e-05 28.2071 0.171771 28.6473 0.481105 28.9835C0.29931 29.182 0.163456 29.418 0.083202 29.6749C0.002948 29.9317 -0.0197357 30.2031 0.0167635 30.4697C0.0532627 30.7363 0.148049 30.9917 0.294383 31.2175C0.440717 31.4433 0.635006 31.6342 0.863439 31.7764C0.701627 32.0513 0.616298 32.3645 0.616298 32.6835C0.616298 33.0026 0.701627 33.3157 0.863439 33.5907C0.524012 33.804 0.263231 34.1219 0.1205 34.4966C-0.0222316 34.8712 -0.0391575 35.2821 0.0722794 35.6671C0.183716 36.0522 0.417461 36.3906 0.738194 36.6311C1.05893 36.8716 1.44922 37.0011 1.85011 37.0002H11.7168C12.0572 36.9991 12.3907 36.9037 12.6803 36.7248C12.9699 36.5459 13.2044 36.2903 13.3577 35.9864C14.9898 36.6548 16.7364 36.9991 18.5001 37.0002H35.7668C36.0939 37.0002 36.4076 36.8703 36.6389 36.639C36.8702 36.4077 37.0001 36.094 37.0001 35.7669V24.6669C37.0001 24.3398 36.8702 24.0261 36.6389 23.7948C36.4076 23.5635 36.0939 23.4335 35.7668 23.4335ZM35.7668 26.4293C35.3427 26.319 34.9558 26.0975 34.646 25.7877C34.3361 25.4779 34.1146 25.0909 34.0043 24.6669H35.7668V26.4293ZM14.1834 12.9502C14.0199 12.9502 13.863 12.8852 13.7474 12.7696C13.6317 12.6539 13.5668 12.4971 13.5668 12.3335C13.5668 12.17 13.6317 12.0131 13.7474 11.8975C13.863 11.7818 14.0199 11.7169 14.1834 11.7169H22.8168C22.9803 11.7169 23.1372 11.7818 23.2528 11.8975C23.3685 12.0131 23.4334 12.17 23.4334 12.3335C23.4334 12.4971 23.3685 12.6539 23.2528 12.7696C23.1372 12.8852 22.9803 12.9502 22.8168 12.9502H14.1834ZM13.2005 3.57318C13.3136 3.421 13.4609 3.29744 13.6304 3.21242C13.7999 3.12739 13.987 3.08325 14.1767 3.08354H14.855C14.8196 3.28722 14.8012 3.49349 14.8001 3.70021V6.16688C14.8001 6.33043 14.8651 6.48728 14.9807 6.60293C15.0964 6.71857 15.2532 6.78354 15.4168 6.78354C15.5803 6.78354 15.7372 6.71857 15.8528 6.60293C15.9685 6.48728 16.0334 6.33043 16.0334 6.16688V3.70021C16.0324 3.36067 16.1021 3.02463 16.2382 2.71354C16.43 2.27332 16.7461 1.89865 17.1478 1.63552C17.5495 1.37238 18.0193 1.23221 18.4995 1.23221C18.9797 1.23221 19.4495 1.37238 19.8511 1.63552C20.2528 1.89865 20.569 2.27332 20.7608 2.71354C20.8973 3.02454 20.9674 3.36058 20.9668 3.70021V6.16688C20.9668 6.33043 21.0317 6.48728 21.1474 6.60293C21.263 6.71857 21.4199 6.78354 21.5834 6.78354C21.747 6.78354 21.9038 6.71857 22.0195 6.60293C22.1351 6.48728 22.2001 6.33043 22.2001 6.16688V3.70021C22.1988 3.49347 22.1802 3.2872 22.1446 3.08354H22.8229C23.013 3.08501 23.2001 3.13036 23.3697 3.21606C23.5392 3.30176 23.6867 3.42548 23.8006 3.57758C23.9145 3.72968 23.9918 3.90604 24.0263 4.0929C24.0608 4.27976 24.0516 4.47207 23.9995 4.65481L22.3506 10.4835H14.6496L13.0001 4.65173C12.9469 4.46879 12.9373 4.27594 12.9721 4.08864C13.0069 3.90133 13.0851 3.72479 13.2005 3.57318ZM1.85011 24.6669H11.7168C11.8803 24.6669 12.0372 24.7318 12.1528 24.8475C12.2685 24.9631 12.3334 25.12 12.3334 25.2835C12.3334 25.4471 12.2685 25.6039 12.1528 25.7196C12.0372 25.8352 11.8803 25.9002 11.7168 25.9002H1.85011C1.68656 25.9002 1.5297 25.8352 1.41406 25.7196C1.29841 25.6039 1.23344 25.4471 1.23344 25.2835C1.23344 25.12 1.29841 24.9631 1.41406 24.8475C1.5297 24.7318 1.68656 24.6669 1.85011 24.6669ZM1.85011 32.6835C1.85011 32.52 1.91508 32.3631 2.03072 32.2475C2.14637 32.1319 2.30322 32.0669 2.46677 32.0669H12.3334C12.497 32.0669 12.6538 32.1319 12.7695 32.2475C12.8851 32.3631 12.9501 32.52 12.9501 32.6835C12.9501 32.8471 12.8851 33.0039 12.7695 33.1196C12.6538 33.2352 12.497 33.3002 12.3334 33.3002H2.46677C2.30322 33.3002 2.14637 33.2352 2.03072 33.1196C1.91508 33.0039 1.85011 32.8471 1.85011 32.6835ZM1.85011 30.8335C1.68656 30.8335 1.5297 30.7686 1.41406 30.6529C1.29841 30.5373 1.23344 30.3804 1.23344 30.2169C1.23344 30.0533 1.29841 29.8965 1.41406 29.7808C1.5297 29.6652 1.68656 29.6002 1.85011 29.6002H11.7168C11.8803 29.6002 12.0372 29.6652 12.1528 29.7808C12.2685 29.8965 12.3334 30.0533 12.3334 30.2169C12.3334 30.3804 12.2685 30.5373 12.1528 30.6529C12.0372 30.7686 11.8803 30.8335 11.7168 30.8335H1.85011ZM1.23344 27.7502C1.23344 27.5867 1.29841 27.4298 1.41406 27.3142C1.5297 27.1985 1.68656 27.1335 1.85011 27.1335H11.7168C11.8803 27.1335 12.0372 27.1985 12.1528 27.3142C12.2685 27.4298 12.3334 27.5867 12.3334 27.7502C12.3334 27.9138 12.2685 28.0706 12.1528 28.1863C12.0372 28.3019 11.8803 28.3669 11.7168 28.3669H1.85011C1.68656 28.3669 1.5297 28.3019 1.41406 28.1863C1.29841 28.0706 1.23344 27.9138 1.23344 27.7502ZM11.7168 35.7669H1.85011C1.68656 35.7669 1.5297 35.7019 1.41406 35.5863C1.29841 35.4706 1.23344 35.3138 1.23344 35.1502C1.23344 34.9867 1.29841 34.8298 1.41406 34.7142C1.5297 34.5985 1.68656 34.5335 1.85011 34.5335H11.7168C11.8803 34.5335 12.0372 34.5985 12.1528 34.7142C12.2685 34.8298 12.3334 34.9867 12.3334 35.1502C12.3334 35.3138 12.2685 35.4706 12.1528 35.5863C12.0372 35.7019 11.8803 35.7669 11.7168 35.7669ZM13.5051 34.7037C13.4644 34.5426 13.4022 34.3876 13.3201 34.2431C13.5845 34.0777 13.8025 33.8478 13.9537 33.575C14.1048 33.3022 14.1841 32.9954 14.1841 32.6835C14.1841 32.3717 14.1048 32.0649 13.9537 31.7921C13.8025 31.5193 13.5845 31.2894 13.3201 31.124C13.5158 30.7893 13.5987 30.4005 13.5565 30.0151C13.5143 29.6296 13.3492 29.268 13.0858 28.9835C13.3951 28.6473 13.5668 28.2071 13.5668 27.7502C13.5668 27.2933 13.3951 26.8531 13.0858 26.5169C13.3269 26.2525 13.4858 25.9237 13.5431 25.5705C13.6004 25.2173 13.5536 24.8551 13.4084 24.528C13.2632 24.201 13.0259 23.9234 12.7255 23.729C12.4251 23.5346 12.0746 23.432 11.7168 23.4335H7.72509C8.63652 19.8026 11.3764 15.9552 14.3592 14.1835H22.6404C26.4255 16.427 29.6001 21.75 29.6001 25.9002C29.6001 31.3404 24.6205 35.7669 18.5001 35.7669C16.7791 35.7651 15.0776 35.4029 13.5051 34.7037ZM30.8334 25.9002C30.8297 25.4878 30.8015 25.076 30.749 24.6669H32.7389C32.8682 25.4229 33.2288 26.1202 33.7711 26.6625C34.3135 27.2049 35.0108 27.5655 35.7668 27.6947V32.739C35.0108 32.8683 34.3135 33.2289 33.7711 33.7712C33.2288 34.3136 32.8682 35.0109 32.7389 35.7669H24.1247C28.1022 33.9224 30.8334 30.1965 30.8334 25.9002ZM34.0043 35.7669C34.1146 35.3428 34.3361 34.9559 34.646 34.6461C34.9558 34.3362 35.3427 34.1147 35.7668 34.0044V35.7669H34.0043Z" fill="white"/>
<path d="M33.3002 32.0667C33.6661 32.0667 34.0238 31.9582 34.328 31.7549C34.6322 31.5516 34.8693 31.2627 35.0094 30.9247C35.1494 30.5866 35.186 30.2146 35.1146 29.8558C35.0433 29.4969 34.8671 29.1673 34.6083 28.9086C34.3496 28.6498 34.02 28.4736 33.6611 28.4022C33.3022 28.3309 32.9303 28.3675 32.5922 28.5075C32.2542 28.6475 31.9653 28.8847 31.762 29.1889C31.5587 29.4931 31.4502 29.8508 31.4502 30.2167C31.4502 30.7074 31.6451 31.1779 31.992 31.5248C32.339 31.8718 32.8095 32.0667 33.3002 32.0667ZM33.3002 29.6C33.4222 29.6 33.5414 29.6362 33.6428 29.704C33.7442 29.7717 33.8232 29.868 33.8699 29.9807C33.9166 30.0934 33.9288 30.2174 33.905 30.337C33.8812 30.4566 33.8225 30.5665 33.7362 30.6527C33.65 30.739 33.5401 30.7977 33.4205 30.8215C33.3009 30.8453 33.1769 30.8331 33.0642 30.7864C32.9515 30.7398 32.8552 30.6607 32.7875 30.5593C32.7197 30.4579 32.6835 30.3387 32.6835 30.2167C32.6835 30.0531 32.7485 29.8963 32.8641 29.7807C32.9798 29.665 33.1366 29.6 33.3002 29.6Z" fill="white"/>
<path d="M20.35 22.2C20.35 22.3636 20.415 22.5204 20.5306 22.636C20.6463 22.7517 20.8031 22.8167 20.9667 22.8167C21.1302 22.8167 21.2871 22.7517 21.4027 22.636C21.5184 22.5204 21.5833 22.3636 21.5833 22.2C21.5824 21.4895 21.3366 20.801 20.8873 20.2506C20.438 19.7001 19.8126 19.3215 19.1167 19.1783V19.1167C19.1167 18.9531 19.0517 18.7963 18.936 18.6806C18.8204 18.565 18.6635 18.5 18.5 18.5C18.3364 18.5 18.1796 18.565 18.0639 18.6806C17.9483 18.7963 17.8833 18.9531 17.8833 19.1167V19.1783C17.1863 19.3199 16.5597 19.698 16.1096 20.2487C15.6595 20.7994 15.4136 21.4888 15.4136 22.2C15.4136 22.9112 15.6595 23.6006 16.1096 24.1513C16.5597 24.702 17.1863 25.0801 17.8833 25.2217V28.8705C17.5238 28.7434 17.2123 28.5082 16.9915 28.1973C16.7707 27.8863 16.6515 27.5147 16.65 27.1333C16.65 26.9698 16.585 26.8129 16.4694 26.6973C16.3537 26.5816 16.1969 26.5167 16.0333 26.5167C15.8698 26.5167 15.7129 26.5816 15.5973 26.6973C15.4816 26.8129 15.4167 26.9698 15.4167 27.1333C15.4176 27.8439 15.6634 28.5324 16.1127 29.0828C16.562 29.6332 17.1874 30.0119 17.8833 30.155V30.2167C17.8833 30.3802 17.9483 30.5371 18.0639 30.6527C18.1796 30.7684 18.3364 30.8333 18.5 30.8333C18.6635 30.8333 18.8204 30.7684 18.936 30.6527C19.0517 30.5371 19.1167 30.3802 19.1167 30.2167V30.155C19.8137 30.0135 20.4403 29.6353 20.8904 29.0846C21.3405 28.5339 21.5864 27.8446 21.5864 27.1333C21.5864 26.4221 21.3405 25.7327 20.8904 25.182C20.4403 24.6314 19.8137 24.2532 19.1167 24.1117V20.4635C19.4761 20.5906 19.7875 20.8256 20.0083 21.1364C20.2291 21.4473 20.3484 21.8187 20.35 22.2ZM16.65 22.2C16.6516 21.8187 16.7709 21.4473 16.9917 21.1364C17.2125 20.8256 17.5239 20.5906 17.8833 20.4635V23.9365C17.5239 23.8094 17.2125 23.5744 16.9917 23.2636C16.7709 22.9527 16.6516 22.5813 16.65 22.2ZM20.35 27.1333C20.3484 27.5146 20.2291 27.8861 20.0083 28.1969C19.7875 28.5077 19.4761 28.7428 19.1167 28.8699V25.3968C19.4761 25.5239 19.7875 25.7589 20.0083 26.0698C20.2291 26.3806 20.3484 26.7521 20.35 27.1333Z" fill="white"/>
</g>
<defs>
<clipPath id="clip0_546_3337">
<rect width="37" height="37" fill="white"/>
</clipPath>
</defs>
</svg>
