<svg width="24" height="24" viewBox="0 0 24 24" fill="none" xmlns="http://www.w3.org/2000/svg">
<g clip-path="url(#clip0_546_3947)">
<path d="M22.5891 15.9093C19.6921 21.9843 15.2344 23.2969 12 23.2969C8.35777 23.2969 4.92652 21.4781 2.81715 18.5109C0.693802 15.5156 0.187458 11.7188 1.4109 8.09058L1.63594 7.62656C3.35152 3.53433 7.51407 0.703125 12 0.703125C15.6422 0.703125 19.0735 2.52187 21.1829 5.48906C23.3062 8.48438 23.8126 12.2812 22.5891 15.9093Z" fill="#65B1FC"/>
<path d="M22.5891 15.9093C19.6921 21.9843 15.2344 23.2969 12 23.2969V0.703125C15.6422 0.703125 19.0735 2.52187 21.1829 5.48906C23.3062 8.48438 23.8125 12.2812 22.5891 15.9093Z" fill="#1689FC"/>
<path d="M21.7592 5.0812C19.5092 1.9312 15.867 0 11.9998 0C7.17637 0 2.76074 3.02813 0.946678 7.48589L0.707569 7.97812C-0.583603 11.9098 -0.0808688 15.6339 2.24043 18.9187C4.49038 22.0687 8.13262 24 11.9998 24C16.767 24 21.1264 21.0422 22.9967 16.6828L23.2076 16.2609C24.6132 12.2616 24.1208 8.41959 21.7592 5.0812ZM3.39355 18.1031C1.39673 15.2906 0.932616 11.7328 2.08574 8.31562L2.26855 7.93589C3.40762 5.20777 5.67168 3.09375 8.37163 2.0812C6.67012 4.30312 5.64351 8.62495 5.77012 10.0312C5.75605 10.0734 5.74194 10.1156 5.74194 10.1719C5.37632 14.8828 6.44507 19.4297 8.45601 21.975C6.44512 21.2437 4.65923 19.8891 3.39355 18.1031ZM11.2967 22.4671C10.8045 22.2984 10.3123 21.9281 9.84819 21.4359C7.87949 19.3125 6.79668 14.8266 7.14824 10.2843V10.1578C7.14824 10.1156 7.1623 10.0594 7.1623 10.0171C7.57007 5.6437 9.28574 2.19375 11.2967 1.53277V22.4671ZM12.7029 22.4531V1.53277C14.8685 2.24995 16.6827 6.23433 16.8935 10.9875C17.0904 15.375 15.9936 19.4953 14.0951 21.4922C13.6451 21.9562 13.1811 22.2984 12.7029 22.4531ZM21.9139 15.6844C20.3389 19.0031 18.117 21.0468 15.5436 21.9609C17.4279 19.5844 18.4967 15.3469 18.2998 10.9312C18.131 7.19058 17.0763 3.96567 15.5436 2.025C17.5545 2.7562 19.3404 4.11094 20.606 5.89683C22.6029 8.70933 23.067 12.2672 21.9139 15.6844Z" fill="#96EBE6"/>
<path d="M21.7594 5.0812C19.5094 1.9312 15.8672 0 12 0V24C16.7672 24 21.1266 21.0422 22.9969 16.6828L23.2078 16.2609C24.6134 12.2616 24.121 8.41959 21.7594 5.0812ZM12.7031 22.4531V1.53277C14.8687 2.24995 16.6829 6.23433 16.8937 10.9875C17.0906 15.375 15.9937 19.4953 14.0953 21.4922C13.6453 21.9562 13.1813 22.2984 12.7031 22.4531ZM21.9141 15.6844C20.3391 19.0031 18.1172 21.0468 15.5438 21.9609C17.4281 19.5844 18.4969 15.3469 18.3 10.9312C18.1312 7.19058 17.0765 3.96567 15.5438 2.025C17.5547 2.7562 19.3406 4.11094 20.6062 5.89683C22.6031 8.70933 23.0672 12.2672 21.9141 15.6844Z" fill="#00C8C8"/>
<path d="M21.8438 7.07812H2.15625C0.989016 7.07812 0 8.02027 0 9.1875V14.8125C0 15.9796 0.989016 16.9219 2.15625 16.9219H21.8438C23.011 16.9219 24 15.9796 24 14.8125V9.1875C24 8.02027 23.011 7.07812 21.8438 7.07812Z" fill="#0053BF"/>
<path d="M24 9.1875V14.8125C24 15.9796 23.011 16.9219 21.8438 16.9219H12V7.07812H21.8438C23.011 7.07812 24 8.02027 24 9.1875Z" fill="#05377F"/>
<path d="M15.4452 10.903L14.039 13.7155C13.9124 13.9546 13.6734 14.1093 13.4062 14.1093C13.139 14.1093 12.8999 13.9546 12.7734 13.7155L11.9999 12.1686L11.2265 13.7155C10.9875 14.1936 10.1999 14.1936 9.96081 13.7155L8.55456 10.903C8.38581 10.5655 8.52648 10.1436 8.87805 9.96083C9.21555 9.79208 9.63738 9.93266 9.82019 10.2842L10.5937 11.8311L11.3671 10.2842C11.4937 10.0452 11.7468 9.9186 11.9999 9.9186C12.253 9.9186 12.5062 10.0452 12.6327 10.2842L13.4062 11.8311L14.1796 10.2842C14.3624 9.93266 14.7843 9.79208 15.1218 9.96083C15.4733 10.1436 15.614 10.5655 15.4452 10.903Z" fill="#E1F1FA"/>
<path d="M20.4375 14.1093C20.1711 14.1093 19.928 13.959 19.8085 13.7207L19.0312 12.1661L18.254 13.7207C18.015 14.1972 17.235 14.1972 16.996 13.7207L15.6488 11.0256C15.5616 10.9185 15.5053 10.786 15.4957 10.6404C15.471 10.2531 15.7436 9.92013 16.1308 9.89472C16.4247 9.88788 16.7213 10.0266 16.8477 10.2792L17.625 11.8338L18.4023 10.2792C18.6412 9.80271 19.4212 9.80271 19.6602 10.2792L20.4375 11.8338L21.2148 10.2792C21.3892 9.9311 21.8114 9.7931 22.1582 9.96476C22.5057 10.1385 22.6464 10.5608 22.4727 10.9082L21.0665 13.7207C20.947 13.959 20.7039 14.1093 20.4375 14.1093Z" fill="#BFE1FF"/>
<path d="M7.82635 9.89196C7.54965 9.88919 7.27843 10.0265 7.15206 10.2792L6.37478 11.8338L5.59749 10.2792C5.34423 9.77444 4.59006 9.77824 4.33956 10.2792L3.56228 11.8338L2.78499 10.2792C2.61057 9.9311 2.18762 9.7931 1.84154 9.96476C1.4941 10.1385 1.35334 10.5608 1.52706 10.9082L2.93331 13.7207C3.05279 13.959 3.29584 14.1093 3.56228 14.1093C3.82871 14.1093 4.07176 13.959 4.19124 13.7207L4.96853 12.1661L5.74581 13.7207C5.86529 13.959 6.10834 14.1093 6.37478 14.1093C6.64121 14.1093 6.88426 13.959 7.00374 13.7207L8.32829 11.0716C8.42856 10.9576 8.4931 10.8072 8.50407 10.6404C8.52878 10.2531 8.21364 9.91737 7.82635 9.89196Z" fill="#E1F1FA"/>
<path d="M15.4453 10.903L14.0391 13.7155C13.9125 13.9546 13.6734 14.1093 13.4062 14.1093C13.1391 14.1093 12.9 13.9546 12.7734 13.7155L12 12.1686V9.9186C12.2531 9.9186 12.5063 10.0452 12.6328 10.2842L13.4062 11.8311L14.1797 10.2842C14.3625 9.93266 14.7844 9.79208 15.1218 9.96083C15.4734 10.1436 15.6141 10.5655 15.4453 10.903Z" fill="#BFE1FF"/>
</g>
<defs>
<clipPath id="clip0_546_3947">
<rect width="24" height="24" fill="white"/>
</clipPath>
</defs>
</svg>
